<?xml version="1.0" encoding="utf-8"?>
<!-- Generator: Adobe Illustrator 16.0.3, SVG Export Plug-In . SVG Version: 6.00 Build 0)  -->
<!DOCTYPE svg PUBLIC "-//W3C//DTD SVG 1.1//EN" "http://www.w3.org/Graphics/SVG/1.1/DTD/svg11.dtd">
<svg version="1.1" xmlns="http://www.w3.org/2000/svg" xmlns:xlink="http://www.w3.org/1999/xlink" x="0px" y="0px" width="750px"
	 height="500px" viewBox="0 0 750 500" enable-background="new 0 0 750 500" xml:space="preserve">
<g id="BACKGROUND">
</g>
<g id="OBJECTS">
	<g>
		<text transform="matrix(1 0 0 1 312.2246 315.8672)" fill="#323247" font-family="'Montserrat-Black'" font-size="25.4399">&lt;/&gt;</text>
	</g>
	<g>
		<path fill="#110307" d="M466.059,221.789c-1.492,32.665-33.602,57.694-57.653,59.206c-31.777,1.997-54.489-26.661-57.652-59.206
			c-2.741-28.195,7.271-27.775,14.729-39.527c9.036-14.24,25.875-22.108,42.923-22.108
			C440.246,160.154,468.065,177.841,466.059,221.789z"/>
		<rect x="386.063" y="277.945" fill="#E3B5AA" width="44.687" height="55.943"/>
		<g>
			<g>
				<path fill="#E3B5AA" d="M458.601,245.315c7.971-12.096,18.112-12.626,22.348,1.679c4.234,14.307-9.743,26.078-21.123,21.734
					C448.444,264.384,458.601,245.315,458.601,245.315z"/>
				<path fill="#D78F97" d="M468.01,245.631c5.339-0.977,8.075,14.931-3.634,15.456l2.408-5.551l-2.26-4.617L468.01,245.631z"/>
				<path fill="none" stroke="#C87E84" stroke-width="0.5" stroke-miterlimit="10" d="M462.625,263.269
					c6.825-7.275,1.899-12.35,1.899-12.35s6.496-13.324,9.1-3.112"/>
			</g>
		</g>
		<g>
			<g>
				<path fill="#E3B5AA" d="M357.838,245.315c-7.972-12.096-18.113-12.626-22.348,1.679c-4.235,14.307,9.742,26.078,21.123,21.734
					C367.993,264.384,357.838,245.315,357.838,245.315z"/>
				<path fill="#D78F97" d="M348.428,245.631c-5.339-0.977-8.076,14.931,3.634,15.456l-2.408-5.551l2.26-4.617L348.428,245.631z"/>
				<path fill="none" stroke="#C87E84" stroke-width="0.5" stroke-miterlimit="10" d="M353.813,263.269
					c-6.826-7.275-1.9-12.35-1.9-12.35s-6.496-13.324-9.1-3.112"/>
			</g>
		</g>
		<path fill="#C87E84" d="M430.749,279.183v20.812c-16.059,21.76-44.687,14.685-44.687,14.685l0.501-35.496H430.749z"/>
		<path fill="#E3B5AA" d="M408.405,303.028L408.405,303.028c-26.676,0-48.3-21.624-48.3-48.3v-35.296
			c0-18.017,14.605-32.623,32.623-32.623h31.354c18.018,0,32.623,14.605,32.623,32.623v35.296
			C456.705,281.404,435.081,303.028,408.405,303.028z"/>
		<path fill="none" stroke="#B83D5D" stroke-miterlimit="10" d="M415.837,261.043c0,4.104-3.327,7.431-7.432,7.431
			c-4.104,0-7.431-3.326-7.431-7.431"/>
		<path fill="#110307" d="M365.208,188.97c0,0-8.46-14.022,2.136-26.387C367.344,162.583,374.957,176.679,365.208,188.97z"/>
		<path fill="#110307" d="M369.505,185.64c0,0-11.78,11.377-26.198,3.808C343.307,189.448,355.349,178.881,369.505,185.64z"/>
		<ellipse fill="#36364F" cx="385.425" cy="243.706" rx="3.799" ry="7.231"/>
		<ellipse fill="#36364F" cx="431.385" cy="243.706" rx="3.799" ry="7.231"/>
		<path fill="#110307" d="M366.091,200.595c0,0,30.685-16.176,51.074-4.452c20.39,11.724,22.684,35.936,42.817,29.67
			c0,0,15.292-6.732-1.529-30.18c-16.82-23.447-28.329-28.035-50.228-22.938C386.326,177.792,372.078,181.756,366.091,200.595z"/>
		<path fill="#280A15" d="M364.918,200.362c0,0,10.129-13.43,24.307-16.98s29.86,13.89,29.86,13.89S382.759,192.092,364.918,200.362
			z"/>
		<path fill="#280A15" d="M360.179,217.255c0,0,3.417,24.925,0,40.137C360.179,257.392,355.185,218.742,360.179,217.255z"/>
		<path fill="#280A15" d="M456.354,217.255c0,0-3.416,24.925,0,40.137C456.354,257.392,461.349,218.742,456.354,217.255z"/>
		<path fill="#280A15" d="M394.084,215.31c-5.271-2.523-14.645-5.292-23.329,0.894c-1.457,1.038-0.903,3.328,0.859,3.632
			c2.786,0.48,6.783,0.978,11.308,0.949c3.518-0.022,7.68-0.888,10.788-1.688C395.537,218.627,395.786,216.124,394.084,215.31z"/>
		<path fill="#280A15" d="M444.979,215.31c-5.271-2.523-14.645-5.292-23.329,0.894c-1.456,1.038-0.902,3.328,0.859,3.632
			c2.786,0.48,6.784,0.978,11.309,0.949c3.517-0.022,7.679-0.888,10.787-1.688C446.433,218.627,446.682,216.124,444.979,215.31z"/>
		<g>
			<g>
				<path fill="#C33E5D" d="M424.743,278.488c-0.501,0.894-1.093,1.829-1.903,2.76c-2.582,3.108-6.967,6.094-14.478,6.231
					l-0.012,0.033l-0.552-0.011l-0.021-0.045c-7.043-0.139-11.383-2.789-14-5.714c-1.014-1.099-1.783-2.26-2.336-3.306
					c-1.251-2.401-1.577-4.29-1.577-4.29l36.471,0.068C426.336,274.216,426.035,276.104,424.743,278.488z"/>
			</g>
			<path fill="#36364F" d="M424.743,278.488c-0.501,0.894-1.093,1.829-1.903,2.76c-8.371-3.678-18.44-4.448-29.062,0.495
				c-1.014-1.099-1.783-2.26-2.336-3.306c-1.251-2.401-1.577-4.29-1.577-4.29l36.471,0.068
				C426.336,274.216,426.035,276.104,424.743,278.488z"/>
		</g>
		<path fill="#EBA154" d="M563.431,472.847l-326.96,0.34c0,0,6.1-12.76,14.88-29.67c0.65-1.25,1.32-2.53,2-3.83
			c11.99-22.87,28.12-51.76,40.71-67.43c14.5-18.04,48.76-30.9,72.03-37.931c13.56-4.09,23.38-6.199,23.38-6.199h37.56
			c0,0,8.82,1.89,21.28,5.579c23.25,6.87,58.01,20.971,74.13,38.551c3.54,3.859,6.87,8.529,9.99,13.71
			C552.271,418.937,563.431,472.847,563.431,472.847z"/>
		<path opacity="0.5" fill="#D9751F" d="M563.431,472.847l-326.96,0.34c0,0,6.1-12.76,14.88-29.67
			c163.161,47.962,249.143-30.639,268.764-51.915c3.168-3.436,7.566-5.504,12.237-5.633l0.079-0.002
			C552.271,418.937,563.431,472.847,563.431,472.847z"/>
		<path fill="#E3B5AA" d="M448.311,333.702c-40.474,44.53-82.219,0.629-82.219,0.629c13.561-4.099,23.383-6.21,23.383-6.21h37.559
			C427.033,328.121,435.853,330.019,448.311,333.702z"/>
		<g>
			
				<line fill="none" stroke="#DC831E" stroke-width="3" stroke-miterlimit="10" x1="319.042" y1="422.463" x2="319.042" y2="473.247"/>
			
				<line fill="none" stroke="#DC831E" stroke-width="3" stroke-miterlimit="10" x1="319.042" y1="454.831" x2="305.406" y2="437.445"/>
		</g>
		<g>
			
				<line fill="none" stroke="#DC831E" stroke-width="3" stroke-miterlimit="10" x1="496.844" y1="422.463" x2="496.844" y2="473.247"/>
			
				<line fill="none" stroke="#DC831E" stroke-width="3" stroke-miterlimit="10" x1="496.844" y1="454.831" x2="508.951" y2="439.395"/>
		</g>
		<path fill="none" stroke="#DC831E" stroke-width="3" stroke-miterlimit="10" d="M364.153,353.657c0,0,50.184,34.271,84.157-1.664"
			/>
		<g>
			<path fill="#FFFFFF" d="M453.107,412.034c-0.506,0-1.049,0.119-1.627,0.357s-1.178,0.56-1.799,0.964
				c-0.621,0.405-1.252,0.864-1.896,1.377c-0.643,0.513-1.273,1.044-1.895,1.593c-0.318,0.274-0.623,0.523-0.912,0.747
				c-0.289,0.225-0.576,0.395-0.865,0.51c-0.203,0.332-0.416,0.77-0.641,1.312c-0.223,0.541-0.443,1.134-0.66,1.776
				c-0.217,0.644-0.424,1.301-0.617,1.973c-0.195,0.672-0.357,1.297-0.488,1.875c-0.072,0.303-0.131,0.6-0.174,0.889
				s-0.094,0.596-0.152,0.921c-0.057,0.325-0.125,0.676-0.205,1.051c-0.08,0.376-0.178,0.795-0.293,1.257
				c-0.072,0.275-0.188,0.495-0.346,0.661c-0.16,0.167-0.326,0.293-0.5,0.38c-0.172,0.086-0.338,0.141-0.498,0.162
				c-0.158,0.021-0.281,0.032-0.367,0.032c-0.551,0-0.998-0.13-1.344-0.39c-0.348-0.26-0.521-0.766-0.521-1.518
				c0-0.202,0.008-0.415,0.021-0.639c0.016-0.225,0.059-0.474,0.131-0.748c0.318-1.372,0.625-2.607,0.922-3.706
				c0.295-1.098,0.596-2.116,0.898-3.056s0.611-1.824,0.922-2.655c0.311-0.83,0.629-1.669,0.953-2.514
				c0.324-0.846,0.664-1.72,1.018-2.623c0.355-0.902,0.734-1.903,1.139-3.001c0.086-0.246,0.314-0.452,0.684-0.618
				c0.367-0.166,0.762-0.249,1.18-0.249c0.549,0,1.002,0.123,1.355,0.368c0.354,0.246,0.531,0.6,0.531,1.063
				c0,0.043-0.016,0.123-0.043,0.238c-0.029,0.115-0.074,0.238-0.131,0.368l-0.953,2.254c0.605-0.477,1.238-0.953,1.896-1.431
				c0.656-0.477,1.332-0.906,2.025-1.289s1.391-0.693,2.092-0.932s1.391-0.357,2.07-0.357c1.387,0,2.471,0.372,3.25,1.115
				c0.781,0.745,1.17,1.896,1.17,3.457c0,0.896-0.154,1.915-0.465,3.056c-0.311,1.142-0.701,2.366-1.17,3.674
				c-0.471,1.308-0.977,2.681-1.518,4.118c-0.543,1.438-1.045,2.9-1.506,4.389c-0.131,0.404-0.264,0.744-0.402,1.019
				c-0.137,0.274-0.299,0.495-0.486,0.661c-0.189,0.166-0.408,0.285-0.662,0.357c-0.252,0.072-0.561,0.108-0.92,0.108
				c-0.564,0-0.955-0.104-1.172-0.314c-0.217-0.209-0.324-0.545-0.324-1.008c0-0.404,0.061-0.899,0.184-1.484
				s0.297-1.228,0.521-1.929c0.223-0.701,0.482-1.448,0.779-2.243s0.617-1.604,0.965-2.428c0.273-0.664,0.545-1.329,0.813-1.994
				c0.268-0.664,0.506-1.307,0.715-1.929c0.209-0.621,0.379-1.213,0.51-1.777c0.131-0.563,0.195-1.083,0.195-1.56
				c0-0.448-0.098-0.842-0.293-1.182C454.006,412.204,453.641,412.034,453.107,412.034z"/>
			<path fill="#FFFFFF" d="M463.445,439.84c-0.117,0-0.246-0.025-0.391-0.076s-0.279-0.13-0.4-0.238
				c-0.123-0.108-0.229-0.245-0.314-0.411c-0.088-0.167-0.131-0.365-0.131-0.597c0-0.159,0.021-0.324,0.064-0.498
				c0.115-0.477,0.238-0.863,0.369-1.159c0.131-0.297,0.318-0.546,0.564-0.748c0.244-0.202,0.576-0.372,0.996-0.51
				c0.418-0.137,0.967-0.278,1.646-0.422c0.434-0.087,0.842-0.185,1.225-0.293s0.697-0.242,0.943-0.401
				c0.736-0.649,1.361-1.321,1.875-2.015c0.512-0.694,0.945-1.413,1.301-2.157c0.354-0.744,0.648-1.506,0.889-2.286
				c0.238-0.78,0.465-1.574,0.682-2.384c0.086-0.274,0.162-0.56,0.229-0.856c0.064-0.296,0.146-0.632,0.248-1.008
				c-0.549,0.477-1.119,0.954-1.711,1.431c-0.594,0.477-1.201,0.903-1.822,1.278c-0.621,0.376-1.252,0.683-1.895,0.921
				c-0.645,0.239-1.283,0.358-1.92,0.358c-0.375,0-0.797-0.116-1.268-0.347c-0.469-0.231-0.914-0.535-1.332-0.911
				c-0.42-0.375-0.773-0.813-1.063-1.311c-0.289-0.499-0.434-1.022-0.434-1.571c0-0.347,0.043-0.723,0.131-1.127
				c0.086-0.404,0.166-0.766,0.238-1.084c0.23-0.953,0.57-1.878,1.018-2.774c0.449-0.896,0.969-1.748,1.561-2.557
				c0.594-0.81,1.244-1.579,1.951-2.309s1.445-1.405,2.211-2.026c0.953-0.78,1.906-1.344,2.861-1.69
				c0.953-0.347,1.965-0.521,3.033-0.521c0.447,0,0.879,0.022,1.289,0.065c0.412,0.043,0.803,0.134,1.172,0.271
				c0.367,0.138,0.711,0.34,1.029,0.607c0.316,0.268,0.605,0.617,0.867,1.051c0.057,0.102,0.104,0.221,0.141,0.357
				c0.035,0.138,0.053,0.257,0.053,0.357c0,0.116-0.031,0.401-0.098,0.856c-0.064,0.455-0.15,1.019-0.26,1.69
				c-0.107,0.672-0.238,1.424-0.389,2.254c-0.152,0.831-0.309,1.669-0.467,2.515c-0.158,0.845-0.318,1.676-0.477,2.492
				c-0.16,0.816-0.311,1.55-0.455,2.199c-0.246,1.142-0.553,2.319-0.922,3.533c-0.367,1.214-0.816,2.398-1.344,3.555
				c-0.527,1.155-1.145,2.246-1.852,3.272c-0.709,1.025-1.533,1.925-2.471,2.698c-0.939,0.772-2.002,1.387-3.188,1.842
				C466.248,439.612,464.918,439.84,463.445,439.84z M465.59,421.895c-0.043,0.174-0.084,0.351-0.119,0.531
				s-0.055,0.357-0.055,0.531c0,0.317,0.059,0.593,0.174,0.823c0.115,0.231,0.326,0.347,0.629,0.347c0.477,0,1.037-0.169,1.68-0.509
				s1.285-0.77,1.928-1.29c0.645-0.52,1.25-1.083,1.822-1.69c0.57-0.606,1.021-1.185,1.354-1.733
				c0.145-0.231,0.336-0.549,0.574-0.954c0.238-0.404,0.477-0.841,0.715-1.311s0.451-0.939,0.641-1.409
				c0.188-0.47,0.303-0.885,0.346-1.246c0-0.245-0.051-0.474-0.15-0.683c-0.102-0.209-0.189-0.502-0.262-0.878h-0.193
				c-0.348,0-0.746,0.112-1.193,0.336c-0.447,0.225-0.92,0.517-1.42,0.878c-0.498,0.361-1,0.77-1.506,1.225s-0.982,0.917-1.43,1.387
				c-0.449,0.47-0.855,0.925-1.225,1.365c-0.369,0.441-0.654,0.827-0.855,1.16c-0.305,0.477-0.582,0.957-0.836,1.44
				C465.955,420.699,465.748,421.259,465.59,421.895z"/>
		</g>
		<path fill="#110307" d="M364.927,179.592c11.268-47.359,124.155-42.148,103.149,50.059c-6.293,27.621-52.301-62.785-92.008-40.606
			c-2.968,1.658-6.667,1.229-9.149-1.095l0,0C364.64,185.815,364.204,182.63,364.927,179.592z"/>
	</g>
	<g>
		<g>
			<path fill="#80ABBD" d="M426.931,472.877c-0.03,0.01-0.07,0.02-0.11,0.02c-0.27,0.03-0.55,0.04-0.83,0.04H207
				c-2.91,0-5.5-1.35-7.19-3.47c-1.26-1.57-2.01-3.57-2.01-5.74l-0.03-0.1l-34.1-96.351c-2.61-7.36,2.85-15.09,10.66-15.09h142.18
				c4.8,0,9.07,3.02,10.67,7.54l36.75,103.82c0.04,0.119,0.06,0.18,0.06,0.18H426.2C431.91,463.727,432.541,472.267,426.931,472.877
				z"/>
			
				<ellipse transform="matrix(0.9456 -0.3252 0.3252 0.9456 -121.7148 103.261)" fill="#FFFFFF" cx="248.025" cy="415.713" rx="16.487" ry="20.017"/>
			<path fill="#4B7195" d="M426.203,463.725h-62.214c0,0-0.018-0.063-0.054-0.18L327.18,359.724
				c-1.603-4.519-5.87-7.534-10.667-7.534h-4.753c0,0,10.623,0.693,13.278,10.199c2.656,9.497,38.952,110.348,38.952,110.348
				l2.683,0.197h59.314c0.289,0,0.567-0.009,0.838-0.035C432.549,472.376,431.946,463.725,426.203,463.725z"/>
		</g>
		<path opacity="0.4" fill="#5A93A0" d="M426.931,472.877c-0.03,0.01-0.07,0.02-0.11,0.02c-0.27,0.03-0.55,0.04-0.83,0.04H207
			c-2.91,0-5.5-1.35-7.19-3.47c129.44,11.12,116.7-117.28,116.7-117.28c4.8,0,9.07,3.02,10.67,7.54l36.75,103.82
			c0.04,0.119,0.06,0.18,0.06,0.18h61.23C425.881,466.757,426.461,469.807,426.931,472.877z"/>
	</g>
	<g>
		<g>
			<g>
				<g>
					<path fill="#4B7195" d="M166.533,409.331v3.224c-5.826,0.666-7.251,5.593-7.251,11.59v1.982c0,5.997,1.426,10.924,7.251,11.59
						v3.208H55.143c-4.571,0-8.274-3.703-8.274-8.274v-15.029c0-4.571,3.703-8.29,8.274-8.29H166.533z"/>
					<path fill="#FFFFFF" d="M164.797,434.417c0.667,1.58-0.558,3.3-2.262,3.3l-106.447,0.078v-25.318l106.447,0.078
						c0.62,0,1.178,0.231,1.596,0.604c0.744,0.62,1.084,1.689,0.666,2.696c-0.883,2.107-0.852,5.036-0.852,8.29v1.982
						C163.945,429.381,163.914,432.31,164.797,434.417z"/>
					<path opacity="0.4" fill="#A3D5E6" d="M164.131,413.158c-2.045,0.108-96.112,4.974-102.558,14.116
						c-1.751,2.479-3.734,3.857-5.485,4.137v-18.935l106.447,0.078C163.155,412.555,163.713,412.786,164.131,413.158z"/>
				</g>
				<path fill="#4B7195" d="M61.573,440.931h-9.36c-2.951,0-5.344-2.393-5.344-5.344v-20.904c0-2.951,2.393-5.344,5.344-5.344h9.36
					V440.931z"/>
				<path opacity="0.4" fill="#A3D5E6" d="M164.797,434.417c0.667,1.58-0.558,3.3-2.262,3.3l-21.25,0.016
					c16.881-1.92,15.827-15.789,15.827-15.789c0.186-0.666-13.34-8.801-13.107-9.404l18.531,0.016c0.62,0,1.178,0.231,1.596,0.604
					c0.744,0.62,1.084,1.689,0.666,2.696c-0.883,2.107-0.852,5.036-0.852,8.289v1.983
					C163.945,429.381,163.914,432.31,164.797,434.417z"/>
			</g>
			<g>
				<rect x="61.754" y="423.288" opacity="0.4" fill="#A3D5E6" width="102.191" height="2.281"/>
				<rect x="61.754" y="418.148" opacity="0.4" fill="#A3D5E6" width="102.191" height="2.282"/>
				<rect x="61.754" y="429.825" opacity="0.4" fill="#A3D5E6" width="102.191" height="2.282"/>
			</g>
			<polygon fill="#C33E5D" points="131.029,433.067 125.596,427.648 120.162,433.067 120.162,418.148 131.029,418.148 			"/>
		</g>
		<g>
			<g>
				<g>
					<path fill="#C33E5D" d="M178.448,440.817v3.223c-5.826,0.666-7.251,5.594-7.251,11.59v1.983c0,5.996,1.426,10.924,7.251,11.59
						v3.208H67.058c-4.571,0-8.274-3.704-8.274-8.274v-15.03c0-4.57,3.703-8.289,8.274-8.289H178.448z"/>
					<path fill="#FFFFFF" d="M176.712,465.903c0.667,1.58-0.558,3.3-2.262,3.3L68.003,469.28v-25.317l106.447,0.077
						c0.62,0,1.178,0.232,1.596,0.604c0.744,0.62,1.084,1.688,0.666,2.696c-0.883,2.107-0.852,5.035-0.852,8.289v1.983
						C175.86,460.867,175.829,463.796,176.712,465.903z"/>
					<path opacity="0.4" fill="#A3D5E6" d="M176.046,444.645c-2.045,0.108-96.112,4.974-102.558,14.115
						c-1.751,2.479-3.734,3.858-5.485,4.138v-18.935l106.447,0.077C175.07,444.04,175.628,444.272,176.046,444.645z"/>
				</g>
				<path fill="#C33E5D" d="M73.488,472.417h-9.359c-2.952,0-5.344-2.393-5.344-5.344v-20.905c0-2.951,2.392-5.344,5.344-5.344
					h9.359V472.417z"/>
				<path opacity="0.4" fill="#A3D5E6" d="M176.712,465.903c0.667,1.58-0.558,3.3-2.262,3.3l-21.25,0.016
					c16.881-1.92,15.827-15.789,15.827-15.789c0.186-0.666-13.34-8.801-13.107-9.405l18.531,0.016c0.62,0,1.178,0.232,1.596,0.604
					c0.744,0.62,1.084,1.688,0.666,2.696c-0.883,2.107-0.852,5.035-0.852,8.289v1.983
					C175.86,460.867,175.829,463.796,176.712,465.903z"/>
			</g>
			<g>
				<rect x="73.669" y="454.774" opacity="0.4" fill="#A3D5E6" width="102.191" height="2.281"/>
				<rect x="73.669" y="449.635" opacity="0.4" fill="#A3D5E6" width="102.191" height="2.282"/>
				<rect x="73.669" y="461.312" opacity="0.4" fill="#A3D5E6" width="102.191" height="2.282"/>
			</g>
			<polygon fill="#C33E5D" points="164.682,466.539 158.941,460.813 153.2,466.539 153.2,450.775 164.682,450.775 			"/>
		</g>
	</g>
	<g>
		<path fill="#47547C" d="M717.851,486.137v2.31c0,7.061-5.729,12.78-12.79,12.78H51.021c-5.95,0-10.95-4.061-12.38-9.55
			c0-0.011,0-0.021-0.01-0.03c-0.26-1.03-0.4-2.1-0.4-3.2v-2.31c0-7.061,5.72-12.78,12.79-12.78h654.04
			C712.121,473.356,717.851,479.076,717.851,486.137z"/>
		<path opacity="0.5" fill="#2B2B3F" d="M717.851,486.137v2.31c0,7.061-5.729,12.78-12.79,12.78H51.021
			c-5.95,0-10.95-4.061-12.38-9.55c0-0.011,0-0.021-0.01-0.03c-0.27-2.05-0.4-3.2-0.4-3.2c366.755,12.78,666.83-15.09,666.83-15.09
			C712.121,473.356,717.851,479.076,717.851,486.137z"/>
	</g>
	<g>
		<path fill="#EBA154" d="M701.54,135.73c0-0.083,0.011-0.156,0.011-0.239c0-0.083-0.011-0.156-0.011-0.229
			c1.196-0.551,2.403-1.186,3.59-1.956c1.27-0.875,2.561-1.884,3.757-3.039l-0.26-1.02c-0.25-1.155-0.697-2.269-1.104-3.382
			c-0.229-0.541-0.499-1.072-0.76-1.603c-0.239-0.552-0.53-1.062-0.853-1.561l-0.542-0.895c-1.634,0.01-3.288,0.218-4.798,0.5
			c-1.362,0.281-2.685,0.687-3.912,1.155l-0.333-0.333c0.458-1.239,0.874-2.55,1.145-3.913c0.291-1.509,0.499-3.164,0.51-4.798
			l-0.895-0.541c-0.5-0.323-1.021-0.614-1.562-0.854c-0.531-0.26-1.062-0.531-1.613-0.76c-1.113-0.406-2.217-0.854-3.372-1.103
			l-1.02-0.26c-1.154,1.197-2.164,2.477-3.039,3.757c-0.77,1.176-1.404,2.383-1.956,3.59c-0.073,0-0.156-0.021-0.229-0.021
			c-0.083,0-0.156,0.021-0.239,0.021c-0.541-1.207-1.187-2.414-1.957-3.59c-0.863-1.28-1.883-2.56-3.027-3.757l-1.021,0.26
			c-1.165,0.25-2.269,0.697-3.382,1.103c-0.541,0.229-1.072,0.5-1.613,0.76c-0.541,0.239-1.051,0.531-1.562,0.854l-0.895,0.541
			c0.021,1.634,0.229,3.289,0.51,4.798c0.28,1.363,0.687,2.674,1.155,3.913c-0.114,0.114-0.229,0.218-0.333,0.333
			c-1.238-0.469-2.55-0.875-3.913-1.155c-1.509-0.281-3.174-0.489-4.798-0.5l-0.552,0.895c-0.312,0.5-0.604,1.009-0.853,1.561
			c-0.25,0.531-0.521,1.062-0.75,1.603c-0.416,1.114-0.854,2.227-1.103,3.382l-0.261,1.02c1.197,1.155,2.478,2.165,3.757,3.039
			c1.176,0.77,2.384,1.405,3.58,1.956c0,0.073-0.01,0.146-0.01,0.229c0,0.083,0.01,0.156,0.01,0.239
			c-1.196,0.541-2.404,1.187-3.58,1.957c-1.279,0.864-2.56,1.883-3.757,3.028l0.261,1.02c0.249,1.156,0.687,2.269,1.103,3.382
			c0.229,0.542,0.5,1.072,0.75,1.613c0.249,0.541,0.541,1.051,0.853,1.551l0.552,0.895c1.624-0.01,3.289-0.219,4.798-0.5
			c1.363-0.281,2.675-0.687,3.913-1.155c0.104,0.114,0.219,0.229,0.333,0.333c-0.469,1.238-0.875,2.55-1.155,3.913
			c-0.281,1.509-0.489,3.174-0.51,4.798l0.895,0.551c0.511,0.312,1.021,0.604,1.562,0.843c0.541,0.26,1.072,0.531,1.613,0.76
			c1.113,0.416,2.217,0.853,3.382,1.103l1.021,0.26c1.145-1.197,2.164-2.477,3.027-3.757c0.771-1.176,1.416-2.383,1.957-3.59
			c0.083,0.011,0.156,0.021,0.239,0.021c0.073,0,0.156-0.01,0.229-0.021c0.552,1.207,1.187,2.415,1.956,3.59
			c0.875,1.28,1.885,2.56,3.039,3.757l1.02-0.26c1.155-0.25,2.259-0.687,3.372-1.103c0.552-0.229,1.082-0.5,1.613-0.76
			c0.541-0.239,1.062-0.531,1.562-0.843l0.895-0.551c-0.011-1.624-0.219-3.289-0.51-4.798c-0.271-1.363-0.687-2.675-1.145-3.913
			c0.114-0.104,0.219-0.219,0.333-0.333c1.228,0.468,2.55,0.874,3.912,1.155c1.51,0.281,3.164,0.489,4.798,0.5l0.542-0.895
			c0.322-0.5,0.613-1.01,0.853-1.551c0.261-0.541,0.531-1.072,0.76-1.613c0.406-1.113,0.854-2.227,1.104-3.382l0.26-1.02
			c-1.196-1.145-2.487-2.165-3.757-3.028C703.943,136.917,702.736,136.271,701.54,135.73z M684.295,143.744
			c-4.558,0-8.253-3.694-8.253-8.253c0-4.558,3.695-8.253,8.253-8.253c4.559,0,8.253,3.695,8.253,8.253
			C692.548,140.05,688.854,143.744,684.295,143.744z"/>
		<polyline fill="none" stroke="#FD783D" stroke-miterlimit="10" stroke-dasharray="4" points="660.638,148.229 604.95,148.229 
			604.95,203.071 620.414,203.071 		"/>
		<g>
			<rect x="621.739" y="232.424" fill="#FFFFFF" width="30.614" height="5.472"/>
			<rect x="621.739" y="242.547" fill="#FFFFFF" width="47.067" height="5.472"/>
			<rect x="621.739" y="252.67" fill="#FFFFFF" width="16.03" height="5.472"/>
			<rect x="644.313" y="252.67" fill="#EBA154" width="16.031" height="5.472"/>
			<rect x="666.08" y="252.67" fill="#EBA154" width="23.021" height="5.472"/>
			<rect x="675.121" y="242.547" fill="#EBA154" width="13.979" height="5.472"/>
			<rect x="658.486" y="232.424" fill="#EBA154" width="30.614" height="5.472"/>
		</g>
		<rect x="699.295" y="196.991" fill="#FFFFFF" width="1.021" height="60.983"/>
	</g>
	<g>
		<rect x="622.214" y="199.231" fill="#FFFFFF" width="31.481" height="5.626"/>
		<rect x="622.214" y="209.641" fill="#FFFFFF" width="48.399" height="5.626"/>
		<rect x="622.214" y="220.05" fill="#FFFFFF" width="16.485" height="5.626"/>
		<rect x="645.427" y="220.05" fill="#EBA154" width="16.485" height="5.626"/>
		<rect x="667.811" y="220.05" fill="#EBA154" width="23.672" height="5.626"/>
		<rect x="677.107" y="209.641" fill="#EBA154" width="14.375" height="5.626"/>
		<rect x="660.001" y="199.231" fill="#EBA154" width="31.481" height="5.626"/>
	</g>
	<g>
		<g>
			<rect x="492.114" y="94.371" fill="#49496B" width="90.591" height="178.021"/>
			<rect x="502.434" y="132.233" fill="#FFFFFF" width="68.016" height="7.224"/>
			<rect x="502.434" y="148.229" fill="#FFFFFF" width="45.017" height="7.224"/>
			<rect x="554.136" y="148.229" fill="#EBA154" width="16.313" height="7.224"/>
			<rect x="528.301" y="164.225" fill="#EBA154" width="42.148" height="7.224"/>
			<rect x="502.434" y="164.225" fill="#FFFFFF" width="19.739" height="7.224"/>
			<rect x="502.434" y="180.221" fill="#FFFFFF" width="35.952" height="7.224"/>
			<rect x="543.923" y="180.221" fill="#EBA154" width="26.526" height="7.224"/>
			<rect x="522.173" y="196.217" fill="#EBA154" width="48.276" height="7.224"/>
			<rect x="502.434" y="196.217" fill="#FFFFFF" width="14.594" height="7.224"/>
			<rect x="502.434" y="212.213" fill="#FFFFFF" width="29.187" height="7.224"/>
			<rect x="536.441" y="212.213" fill="#EBA154" width="34.008" height="7.224"/>
			<g>
				<g>
					<path fill="#EBA154" d="M568.44,254.845v2.032l-7.444,2.831v-1.955l5.208-1.893l-5.208-1.907v-1.939L568.44,254.845z"/>
				</g>
				<g>
					<path fill="#EBA154" d="M547.275,252.014v1.939l-5.208,1.907l5.208,1.893v1.955l-7.444-2.831v-2.032L547.275,252.014z"/>
				</g>
				<g>
					<path fill="#EBA154" d="M556.076,246.533h2.329l-5.529,15.782h-2.328L556.076,246.533z"/>
				</g>
			</g>
			<g>
				<g>
					<path fill="#EBA154" d="M534.259,115.916v2.664l-9.757,3.71v-2.562l6.825-2.48l-6.825-2.5v-2.542L534.259,115.916z"/>
				</g>
				<g>
					<path fill="#EBA154" d="M516.317,112.205v2.542l-6.825,2.5l6.825,2.48v2.562l-9.756-3.71v-2.664L516.317,112.205z"/>
				</g>
			</g>
		</g>
		<text transform="matrix(1 0 0 1 492.7012 79.8667)" fill="#FFFFFF" font-family="'Montserrat-Black'" font-size="18.4267">HTML</text>
	</g>
	<g>
		<g>
			<g>
				<path fill="#64648E" d="M72.918,276.746c-1.88-1.845-4.052-3.336-6.407-4.418c-0.042-0.022-0.085-0.042-0.129-0.061
					c-3.318-1.504-6.982-2.216-10.683-2.012c-2.531,0.134-5.077,0.704-7.537,1.737c-0.152,0.064-0.307,0.131-0.458,0.198
					c-4.411,1.967-7.891,5.175-10.207,9.033c-3.704,6.155-4.446,13.962-1.303,21.009c5.109,11.455,18.587,16.619,30.042,11.51
					c10.501-4.683,15.714-16.396,12.576-27.139c-0.284-0.979-0.64-1.948-1.066-2.903C76.551,281.021,74.898,278.685,72.918,276.746z
					 M63.398,307.381c-7.948,3.545-17.297-0.037-20.842-7.985c-2.108-4.727-1.694-9.949,0.66-14.148
					c0.016-0.029,0.033-0.063,0.052-0.097c1.605-2.823,4.086-5.176,7.273-6.597c0.596-0.267,1.204-0.492,1.815-0.676
					c0.063-0.022,0.128-0.042,0.192-0.061c3.157-0.925,6.432-0.809,9.409,0.187c0.013,0.001,0.024,0.005,0.036,0.01
					c2.55,0.858,4.877,2.363,6.718,4.409c1.075,1.192,1.984,2.573,2.672,4.116c0.428,0.96,0.75,1.938,0.974,2.925
					C74,296.658,70.386,304.265,63.398,307.381z"/>
			</g>
			<path fill="#EBA154" d="M66.511,272.328c2.354,1.082,4.526,2.573,6.407,4.418c1.98,1.938,3.633,4.275,4.828,6.955
				c0.426,0.955,0.782,1.924,1.066,2.903l-6.454,2.859c-0.224-0.986-0.546-1.965-0.974-2.925c-0.688-1.543-1.597-2.924-2.672-4.116
				c-1.84-2.046-4.167-3.551-6.718-4.409l-0.036-0.01l0,0l4.424-5.736"/>
			<line fill="#EBA154" x1="66.511" y1="272.328" x2="61.994" y2="278.014"/>
			<path fill="#B83D5D" d="M61.994,278.014l-0.036-0.01c-2.977-0.995-6.252-1.111-9.409-0.187c-0.064,0.019-0.129,0.038-0.192,0.061
				l-4.194-5.885c2.46-1.033,5.006-1.604,7.537-1.737c3.701-0.204,7.365,0.508,10.683,2.012"/>
		</g>
		<g>
			<g>
				<line fill="none" stroke="#FD783D" stroke-miterlimit="10" x1="58.784" y1="315.715" x2="58.784" y2="317.715"/>
				
					<line fill="none" stroke="#FD783D" stroke-miterlimit="10" stroke-dasharray="3.8274,3.8274" x1="58.784" y1="321.542" x2="58.784" y2="350.248"/>
				<polyline fill="none" stroke="#FD783D" stroke-miterlimit="10" points="58.784,352.162 58.784,354.162 60.784,354.162 				"/>
				
					<line fill="none" stroke="#FD783D" stroke-miterlimit="10" stroke-dasharray="4.1156,4.1156" x1="64.899" y1="354.162" x2="120.46" y2="354.162"/>
				<polyline fill="none" stroke="#FD783D" stroke-miterlimit="10" points="122.518,354.162 124.518,354.162 124.518,352.162 				
					"/>
				
					<line fill="none" stroke="#FD783D" stroke-miterlimit="10" stroke-dasharray="3.8948,3.8948" x1="124.518" y1="348.267" x2="124.518" y2="319.057"/>
				<line fill="none" stroke="#FD783D" stroke-miterlimit="10" x1="124.518" y1="317.108" x2="124.518" y2="315.108"/>
			</g>
		</g>
		<g>
			<rect x="100.528" y="83.297" fill="#49496B" width="192.848" height="229.918"/>
			<rect x="100.528" y="72.097" fill="#64648E" width="192.848" height="29.181"/>
			<g>
				<g>
					<path fill="#EBA154" d="M271.06,297.4v1.894l-6.935,2.637v-1.82l4.852-1.764l-4.852-1.777v-1.807L271.06,297.4z"/>
				</g>
				<g>
					<path fill="#EBA154" d="M251.343,294.763v1.807l-4.852,1.777l4.852,1.764v1.82l-6.935-2.637V297.4L251.343,294.763z"/>
				</g>
				<text transform="matrix(1 0 0 1 254.9063 302.7988)" fill="#EBA154" font-family="'Montserrat-Bold'" font-size="15.6111">/</text>
			</g>
			<g>
				<g>
					<path fill="#EBA154" d="M146.225,119.88v2.362l-8.648,3.288v-2.271l6.05-2.198l-6.05-2.216v-2.253L146.225,119.88z"/>
				</g>
				<g>
					<path fill="#EBA154" d="M130.322,116.592v2.253l-6.05,2.216l6.05,2.198v2.271l-8.648-3.288v-2.362L130.322,116.592z"/>
				</g>
			</g>
			<text transform="matrix(1 0 0 1 112.229 92.8726)" fill="#FFFFFF" font-family="'Montserrat-Bold'" font-size="13.8438">WEB DEVELOPING</text>
			<g>
				<g>
					<rect x="133.868" y="139.554" fill="#54B3CD" width="56.688" height="10.381"/>
					<rect x="198.542" y="139.554" fill="#EBA154" width="28.344" height="10.381"/>
					<rect x="233.414" y="139.554" fill="#FFFFFF" width="39.038" height="10.381"/>
					<rect x="133.868" y="158.088" fill="#54B3CD" width="26.457" height="10.381"/>
					<rect x="167.524" y="158.088" fill="#EBA154" width="45.19" height="10.381"/>
					<rect x="220.078" y="158.088" fill="#FFFFFF" width="52.374" height="10.381"/>
					<rect x="133.868" y="176.622" fill="#54B3CD" width="34.826" height="10.382"/>
					<rect x="174.363" y="176.622" fill="#EBA154" width="65.512" height="10.382"/>
					<rect x="246.895" y="176.622" fill="#FFFFFF" width="25.557" height="10.382"/>
					<rect x="133.868" y="195.156" fill="#54B3CD" width="43.915" height="10.381"/>
					<rect x="184.262" y="195.156" fill="#EBA154" width="42.624" height="10.381"/>
					<rect x="233.414" y="195.156" fill="#FFFFFF" width="39.038" height="10.381"/>
					<rect x="133.868" y="213.69" fill="#54B3CD" width="19.258" height="10.381"/>
					<rect x="159.605" y="213.69" fill="#EBA154" width="38.155" height="10.381"/>
					<rect x="203.7" y="213.69" fill="#FFFFFF" width="68.752" height="10.381"/>
					<rect x="133.868" y="232.224" fill="#54B3CD" width="55.074" height="10.381"/>
					<rect x="195.781" y="232.224" fill="#EBA154" width="16.933" height="10.381"/>
					<rect x="220.078" y="232.224" fill="#FFFFFF" width="52.374" height="10.381"/>
					<rect x="133.868" y="250.758" fill="#54B3CD" width="71.706" height="10.382"/>
					<rect x="211.619" y="250.758" fill="#EBA154" width="29.336" height="10.382"/>
					<rect x="246.895" y="250.758" fill="#FFFFFF" width="25.557" height="10.382"/>
					<rect x="133.868" y="269.292" fill="#54B3CD" width="21.958" height="10.381"/>
					<rect x="162.211" y="269.292" fill="#EBA154" width="26.73" height="10.381"/>
					<rect x="195.781" y="269.292" fill="#FFFFFF" width="76.671" height="10.381"/>
				</g>
				<rect x="280.032" y="139.554" fill="#FFFFFF" width="2.111" height="140.119"/>
				<circle fill="#FFFFFF" cx="116.042" cy="144.745" r="5.191"/>
				<circle fill="#FFFFFF" cx="116.042" cy="163.278" r="5.191"/>
				<circle fill="#FFFFFF" cx="116.042" cy="181.813" r="5.191"/>
				<circle fill="#FFFFFF" cx="116.042" cy="200.347" r="5.191"/>
				<circle fill="#FFFFFF" cx="116.042" cy="218.88" r="5.191"/>
				<circle fill="#FFFFFF" cx="116.042" cy="237.415" r="5.191"/>
				<circle fill="#FFFFFF" cx="116.042" cy="255.948" r="5.191"/>
				<circle fill="#FFFFFF" cx="116.042" cy="274.482" r="5.191"/>
			</g>
			<circle fill="#B83D5D" cx="279.491" cy="88.297" r="5.294"/>
		</g>
		<circle fill="#FFFFFF" cx="266.365" cy="88.19" r="5.334"/>
	</g>
	<g>
		<rect x="319.042" y="110.332" fill="#47547C" width="18.682" height="5.234"/>
		<rect x="319.042" y="101.013" fill="#64648E" width="57.153" height="5.234"/>
		<g>
			<g>
				<line fill="none" stroke="#FD783D" stroke-miterlimit="10" x1="352.062" y1="116.563" x2="352.062" y2="118.563"/>
				
					<line fill="none" stroke="#FD783D" stroke-miterlimit="10" stroke-dasharray="3.3763,3.3763" x1="352.062" y1="121.939" x2="352.062" y2="133.756"/>
				<polyline fill="none" stroke="#FD783D" stroke-miterlimit="10" points="352.062,135.444 352.062,137.444 354.062,137.444 				
					"/>
				
					<line fill="none" stroke="#FD783D" stroke-miterlimit="10" stroke-dasharray="3.8091,3.8091" x1="357.871" y1="137.444" x2="416.912" y2="137.444"/>
				<polyline fill="none" stroke="#FD783D" stroke-miterlimit="10" points="418.816,137.444 420.816,137.444 420.816,135.444 				
					"/>
				
					<line fill="none" stroke="#FD783D" stroke-miterlimit="10" stroke-dasharray="4.057,4.057" x1="420.816" y1="131.387" x2="420.816" y2="125.302"/>
				<line fill="none" stroke="#FD783D" stroke-miterlimit="10" x1="420.816" y1="123.273" x2="420.816" y2="121.273"/>
			</g>
		</g>
		<text transform="matrix(1 0 0 1 319.042 87.1904)" fill="#FFFFFF" font-family="'Montserrat-Black'" font-size="18.4267">CSS</text>
		<g>
			<g>
				<path fill="#64648E" d="M435.967,99.956c-0.194-0.68-0.444-1.353-0.735-2.012c-0.832-1.859-1.978-3.482-3.351-4.828
					c-1.304-1.276-2.816-2.31-4.446-3.059c-0.028-0.021-0.063-0.035-0.091-0.042c-2.303-1.048-4.842-1.54-7.408-1.401
					c-1.755,0.097-3.524,0.493-5.23,1.207c-0.104,0.048-0.215,0.09-0.319,0.139c-3.059,1.367-5.473,3.586-7.075,6.264
					c-1.998,3.315-2.754,7.318-1.971,11.23c0.223,1.131,0.576,2.248,1.062,3.344c3.545,7.95,12.896,11.529,20.839,7.984
					c4.849-2.165,8.074-6.479,9.046-11.328C436.778,105.02,436.695,102.453,435.967,99.956z M425.277,114.371
					c-5.516,2.456-12.001-0.027-14.457-5.542c-0.201-0.451-0.367-0.909-0.506-1.374c-0.854-2.886-0.444-5.931,0.964-8.435
					c0.007-0.021,0.021-0.049,0.035-0.069c1.109-1.956,2.83-3.593,5.043-4.579c0.416-0.18,0.832-0.34,1.262-0.464
					c0.042-0.021,0.084-0.035,0.132-0.042c2.192-0.645,4.461-0.562,6.528,0.125c0.007,0,0.014,0.007,0.021,0.007
					c1.769,0.597,3.385,1.644,4.661,3.06c0.75,0.825,1.374,1.782,1.853,2.857c0.299,0.666,0.521,1.346,0.68,2.026
					c0.424,1.859,0.34,3.753-0.18,5.515C430.445,110.431,428.322,113.011,425.277,114.371z"/>
			</g>
			<path fill="#B83D5D" d="M436.286,107.455h-4.974c0.52-1.762,0.604-3.656,0.18-5.515c-0.159-0.68-0.381-1.36-0.68-2.026
				c-0.479-1.075-1.103-2.032-1.853-2.857c-1.276-1.416-2.893-2.463-4.661-3.06c-0.007,0-0.014-0.007-0.021-0.007
				c-2.067-0.687-4.336-0.77-6.528-0.125c-0.048,0.007-0.09,0.021-0.132,0.042c-0.43,0.125-0.846,0.284-1.262,0.464
				c-2.213,0.985-3.934,2.623-5.043,4.579c-0.015,0.021-0.028,0.048-0.035,0.069c-1.408,2.504-1.817,5.549-0.964,8.435h-4.975
				c-0.783-3.912-0.027-7.915,1.971-11.23c1.603-2.678,4.017-4.897,7.075-6.264c0.104-0.049,0.216-0.09,0.319-0.139
				c1.706-0.714,3.476-1.11,5.23-1.207c2.566-0.139,5.105,0.354,7.408,1.401c0.028,0.007,0.063,0.021,0.091,0.042
				c1.63,0.749,3.143,1.783,4.446,3.059c1.373,1.346,2.519,2.969,3.351,4.828c0.291,0.659,0.541,1.332,0.735,2.012
				C436.695,102.453,436.778,105.02,436.286,107.455z"/>
		</g>
		<rect x="341.468" y="110.332" fill="#64648E" width="34.728" height="5.234"/>
	</g>
	<g>
		<text transform="matrix(1 0 0 1 48.6606 94.3711)" fill="#323247" font-family="'Montserrat-Black'" font-size="26.4103">{ }</text>
		<g>
			<rect x="48.514" y="123.946" fill="#FFFFFF" width="20.54" height="9.802"/>
			<rect x="48.514" y="141.07" fill="#FFFFFF" width="20.54" height="9.802"/>
			<rect x="48.514" y="158.195" fill="#EBA154" width="20.54" height="9.802"/>
			<rect x="48.514" y="175.32" fill="#EBA154" width="20.54" height="9.802"/>
			<rect x="48.514" y="192.445" fill="#EBA154" width="20.54" height="9.802"/>
			<rect x="48.514" y="209.57" fill="#EBA154" width="20.54" height="9.802"/>
			<rect x="48.514" y="226.694" fill="#EBA154" width="20.54" height="9.802"/>
		</g>
	</g>
	<g>
		<path fill="#323247" d="M649.491,316.688c0-0.071,0.009-0.134,0.009-0.205s-0.009-0.134-0.009-0.195
			c1.023-0.472,2.056-1.015,3.07-1.673c1.086-0.748,2.189-1.611,3.213-2.6l-0.223-0.872c-0.214-0.987-0.596-1.939-0.943-2.892
			c-0.196-0.463-0.427-0.917-0.649-1.371c-0.205-0.472-0.454-0.907-0.729-1.335l-0.463-0.766c-1.397,0.01-2.813,0.188-4.104,0.428
			c-1.165,0.24-2.296,0.587-3.346,0.987l-0.285-0.284c0.392-1.06,0.748-2.181,0.979-3.347c0.249-1.29,0.427-2.705,0.436-4.103
			l-0.765-0.463c-0.428-0.275-0.872-0.524-1.335-0.729c-0.454-0.223-0.908-0.454-1.38-0.649c-0.952-0.348-1.896-0.73-2.883-0.943
			l-0.872-0.223c-0.988,1.023-1.852,2.118-2.6,3.213c-0.658,1.006-1.201,2.038-1.673,3.07c-0.063,0-0.134-0.018-0.195-0.018
			c-0.071,0-0.134,0.018-0.205,0.018c-0.463-1.032-1.015-2.064-1.673-3.07c-0.738-1.095-1.61-2.189-2.59-3.213l-0.872,0.223
			c-0.997,0.213-1.94,0.596-2.893,0.943c-0.463,0.195-0.917,0.427-1.38,0.649c-0.462,0.205-0.898,0.454-1.335,0.729l-0.765,0.463
			c0.018,1.397,0.195,2.813,0.437,4.103c0.239,1.166,0.587,2.287,0.987,3.347c-0.098,0.098-0.196,0.187-0.284,0.284
			c-1.06-0.4-2.181-0.747-3.347-0.987c-1.29-0.24-2.715-0.418-4.103-0.428l-0.472,0.766c-0.268,0.428-0.517,0.863-0.729,1.335
			c-0.214,0.454-0.445,0.908-0.642,1.371c-0.355,0.952-0.729,1.904-0.942,2.892l-0.223,0.872c1.023,0.988,2.118,1.852,3.212,2.6
			c1.006,0.658,2.038,1.201,3.062,1.673c0,0.062-0.009,0.124-0.009,0.195s0.009,0.134,0.009,0.205
			c-1.023,0.462-2.056,1.015-3.062,1.673c-1.094,0.738-2.188,1.61-3.212,2.59l0.223,0.872c0.213,0.988,0.587,1.94,0.942,2.893
			c0.196,0.463,0.428,0.916,0.642,1.379c0.213,0.463,0.462,0.899,0.729,1.326l0.472,0.766c1.388-0.009,2.813-0.188,4.103-0.428
			c1.166-0.24,2.287-0.587,3.347-0.987c0.088,0.098,0.187,0.195,0.284,0.285c-0.4,1.059-0.748,2.18-0.987,3.346
			c-0.241,1.29-0.419,2.714-0.437,4.103l0.765,0.472c0.437,0.267,0.873,0.517,1.335,0.721c0.463,0.223,0.917,0.454,1.38,0.65
			c0.952,0.355,1.896,0.729,2.893,0.942l0.872,0.223c0.979-1.023,1.852-2.118,2.59-3.213c0.658-1.005,1.21-2.038,1.673-3.069
			c0.071,0.009,0.134,0.018,0.205,0.018c0.062,0,0.133-0.009,0.195-0.018c0.472,1.031,1.015,2.064,1.673,3.069
			c0.748,1.095,1.611,2.189,2.6,3.213l0.872-0.223c0.987-0.213,1.931-0.587,2.883-0.942c0.472-0.196,0.926-0.428,1.38-0.65
			c0.463-0.204,0.907-0.454,1.335-0.721l0.765-0.472c-0.009-1.389-0.187-2.813-0.436-4.103c-0.231-1.166-0.588-2.287-0.979-3.346
			c0.099-0.09,0.188-0.188,0.285-0.285c1.05,0.4,2.181,0.747,3.346,0.987c1.291,0.24,2.706,0.419,4.104,0.428l0.463-0.766
			c0.275-0.427,0.524-0.863,0.729-1.326c0.223-0.463,0.453-0.916,0.649-1.379c0.348-0.952,0.729-1.904,0.943-2.893l0.223-0.872
			c-1.023-0.979-2.127-1.852-3.213-2.59C651.547,317.703,650.515,317.15,649.491,316.688z M634.745,323.541
			c-3.898,0-7.058-3.159-7.058-7.058c0-3.897,3.159-7.057,7.058-7.057c3.897,0,7.057,3.159,7.057,7.057
			C641.802,320.382,638.643,323.541,634.745,323.541z"/>
		<g>
			<g>
				<rect x="575.321" y="290.479" fill="#B83D5D" width="9.317" height="41.968"/>
				<rect x="561.576" y="308.971" fill="#64648E" width="9.988" height="23.477"/>
				<rect x="547.74" y="316.483" fill="#FD783D" width="9.988" height="15.964"/>
			</g>
			<g>
				<g>
					<line fill="none" stroke="#FD783D" stroke-miterlimit="10" x1="545.974" y1="325.762" x2="543.974" y2="325.762"/>
					
						<line fill="none" stroke="#FD783D" stroke-miterlimit="10" stroke-dasharray="5.071,5.071" x1="538.902" y1="325.762" x2="531.296" y2="325.762"/>
					<polyline fill="none" stroke="#FD783D" stroke-miterlimit="10" points="528.761,325.762 526.761,325.762 526.761,327.762 					
						"/>
					
						<line fill="none" stroke="#FD783D" stroke-miterlimit="10" stroke-dasharray="3.7405,3.7405" x1="526.761" y1="331.503" x2="526.761" y2="359.557"/>
					<polyline fill="none" stroke="#FD783D" stroke-miterlimit="10" points="526.761,361.427 526.761,363.427 528.761,363.427 					
						"/>
					
						<line fill="none" stroke="#FD783D" stroke-miterlimit="10" stroke-dasharray="3.3959,3.3959" x1="532.156" y1="363.427" x2="544.042" y2="363.427"/>
					<line fill="none" stroke="#FD783D" stroke-miterlimit="10" x1="545.739" y1="363.427" x2="547.739" y2="363.427"/>
				</g>
			</g>
			<g>
				<rect x="550.903" y="361.562" fill="#FFFFFF" width="26.43" height="4.724"/>
				<rect x="550.903" y="370.301" fill="#FFFFFF" width="18.28" height="4.724"/>
				<rect x="550.903" y="379.04" fill="#FFFFFF" width="23.139" height="4.724"/>
				<rect x="578.829" y="379.04" fill="#EBA154" width="5.401" height="4.724"/>
				<rect x="589.183" y="379.04" fill="#EBA154" width="19.874" height="4.724"/>
				<rect x="575.042" y="370.301" fill="#EBA154" width="34.015" height="4.724"/>
				<rect x="582.627" y="361.562" fill="#EBA154" width="26.43" height="4.724"/>
			</g>
		</g>
		<g>
			<rect x="682.278" y="313.923" fill="#B83D5D" width="17.414" height="8.311"/>
			<rect x="682.278" y="328.442" fill="#B83D5D" width="17.414" height="8.311"/>
			<rect x="682.278" y="342.962" fill="#B83D5D" width="17.414" height="8.311"/>
			<rect x="682.278" y="357.48" fill="#B83D5D" width="17.414" height="8.311"/>
			<rect x="682.278" y="372" fill="#FFFFFF" width="17.414" height="8.311"/>
			<rect x="682.278" y="386.52" fill="#FFFFFF" width="17.414" height="8.311"/>
			<rect x="682.278" y="401.038" fill="#FFFFFF" width="17.414" height="8.311"/>
		</g>
	</g>
	<g>
		<g>
			<path fill="#0C8068" d="M623.766,433.163c-6.509,0.49-11.957-1.057-16.509-3.882c-18.371-11.368-22.203-43.43-22.468-45.838
				c0.161,0.739,1.972,4.659,21.066,17.505c1.589,1.072,3.044,2.159,4.372,3.259c0,0,0.023,0.019,0.069,0.053
				C626.937,418.04,623.766,433.163,623.766,433.163z"/>
			<path fill="none" stroke="#0A6D53" stroke-miterlimit="10" d="M584.775,383.302c0,0,17.154,42.095,36.184,46.525"/>
			<path opacity="0.5" fill="#0A6D53" d="M623.766,433.163c-6.509,0.49-11.957-1.057-16.509-3.882
				c3.656-8.653,2.971-25.074,2.971-25.074s0.023,0.019,0.069,0.053C626.937,418.04,623.766,433.163,623.766,433.163z"/>
		</g>
		<g>
			<path fill="#0C8068" d="M672.525,385.786c-0.072,0.448-0.329,2.003-0.842,4.292c0,0,0,0.004,0,0.008
				c-2.711,12.138-12.493,44.797-38.813,41.523c0,0-0.444-2.803,0.444-6.995c1.302-6.165,5.486-15.342,18.217-23.038
				C670.424,390.151,672.334,386.483,672.525,385.786z"/>
			<path fill="none" stroke="#0A6D53" stroke-miterlimit="10" d="M671.684,388.379c0,0-13.508,34.997-36.938,42.133"/>
			<path opacity="0.5" fill="#0A6D53" d="M671.684,390.078c0,0,0,0.004,0,0.008c-2.711,12.138-12.493,44.797-38.813,41.523
				c0,0-0.444-2.803,0.444-6.995h0.026C655.238,425.785,671.684,390.078,671.684,390.078z"/>
		</g>
		<g>
			<path fill="#159A7A" d="M631.458,432.776c-0.65,1.13-10.261-2.863-14.591-14.419h-0.004c-2.601-6.941-3.293-16.612,1.003-29.535
				c11.287-33.938,6.635-40.336,6.497-40.516c0.227,0.107,10.035,4.978,16.36,16.827c0,0,0.008,0.016,0.026,0.046
				C647.707,378.251,650.422,399.792,631.458,432.776z"/>
			<path fill="none" stroke="#0C8068" stroke-miterlimit="10" d="M624.358,348.303c0,0,14.718,18.57,9.113,53.893
				s-2.014,30.581-2.014,30.581"/>
			<path opacity="0.5" fill="#0C8068" d="M631.458,432.776c-0.65,1.13-10.261-2.863-14.591-14.419
				c24.231,6.885,23.856-53.224,23.856-53.224s0.008,0.016,0.026,0.046C647.707,378.251,650.422,399.792,631.458,432.776z"/>
		</g>
		<path fill="#0C8068" d="M584.773,383.302c0,0,0.004,0.038,0.012,0.118C584.767,383.336,584.773,383.302,584.773,383.302z"/>
		<path fill="#EBA154" d="M650.085,432.271v27.127c0,7.937-6.433,14.369-14.369,14.369h-12.758c-5.195,0-9.748-2.757-12.271-6.892
			h-0.004c-1.329-2.179-2.095-4.74-2.095-7.478v-27.127H650.085z"/>
		<path fill="#EBA154" d="M651.593,428.752h-44.511c-0.585,0-1.059,0.475-1.059,1.06v1.4c0,0.585,0.474,1.06,1.059,1.06h44.511
			c0.585,0,1.06-0.474,1.06-1.059v-1.401C652.652,429.227,652.178,428.752,651.593,428.752z"/>
		<path fill="#DC831E" d="M650.085,432.271v27.127c0,7.937-6.433,14.369-14.369,14.369h-12.758c-5.195,0-9.748-2.757-12.271-6.892
			c30.393,9.545,36.993-12.804,35.817-21.667c-1.171-8.863-12.122-12.938-12.122-12.938H650.085z"/>
	</g>
</g>
</svg>
